<svg width="431" height="382" viewBox="0 0 431 382" fill="none" xmlns="http://www.w3.org/2000/svg">
<path opacity="0.96" d="M173.267 281.082C169.2 281.065 165.128 280.902 161.052 280.568C116.38 276.906 64.629 255.575 42.387 216.737C22.941 182.784 15.306 138.826 24.16 100.959C32.483 65.364 58.287 36.53 94.42 25.581C135.056 13.268 179.968 28.229 219.954 11.413C278.153 -13.062 351.302 6.375 392.09 52.942C428.253 94.228 437.006 160.801 425.654 212.383C419.917 238.452 404.825 263.56 380.802 276.685C361.688 287.128 338.583 289.187 316.726 286.465C299.152 284.277 282.972 278.545 266.066 273.828C252.515 270.047 241.396 272.015 227.526 274.76C209.676 278.292 191.525 281.158 173.267 281.082Z" fill="#ECECEC"/>
<path d="M249.595 56.632H364.86L348.109 50.978C348.109 50.978 345.953 39.994 340.314 39.994C334.675 39.994 330.861 46.778 330.861 46.778C330.861 46.778 331.027 24.003 316.598 24.003C302.169 24.003 299.018 46.294 299.018 46.294C299.018 46.294 295.535 35.149 287.741 35.149C279.946 35.149 276.961 49.364 276.961 49.364L249.595 56.632Z" fill="white"/>
<path d="M237.339 381.11C329.999 381.11 405.115 377.793 405.115 373.701C405.115 369.609 329.999 366.292 237.339 366.292C144.679 366.292 69.563 369.609 69.563 373.701C69.563 377.793 144.679 381.11 237.339 381.11Z" fill="#330202"/>
<path d="M227.975 352.292C227.975 352.292 294.603 347.842 288.596 328.853C282.589 309.864 252.762 329.434 252.762 329.434C252.762 329.434 276.169 312.537 276.97 293.214C277.771 273.891 233.502 324.61 233.502 324.61C233.502 324.61 246.82 307.914 245.799 287.77C244.777 267.625 214.638 298.972 227.975 352.292Z" fill="#FF7F00"/>
<path opacity="0.39" d="M231.184 341.772C231.184 341.772 278.52 281.996 266.767 300.65C255.014 319.304 231.184 341.772 231.184 341.772Z" fill="#FF7F00"/>
<path opacity="0.39" d="M279.387 330.157L233.584 342.232C233.584 342.232 273.977 337.347 279.387 330.157Z" fill="#FF7F00"/>
<path opacity="0.39" d="M239.118 292.429L227.193 329.24C227.193 329.24 231.429 298.563 239.118 292.429Z" fill="#FF7F00"/>
<path d="M89.443 179.163C89.443 179.163 68.656 133.406 26.12 125.914C-16.416 118.422 86.724 193.052 86.724 193.052L89.443 179.163Z" fill="#FF7F00"/>
<path opacity="0.39" d="M87.661 188.267C87.661 188.267 46.369 141.553 32.799 135.624C19.229 129.695 69.261 149.015 88.14 185.822C87.661 188.267 87.661 188.267 87.661 188.267Z" fill="#FF7F00"/>
<path d="M98.329 182.093C98.329 182.093 98.557 131.836 63.04 107.26C27.523 82.684 90.056 193.576 90.056 193.576L98.329 182.093Z" fill="#FF7F00"/>
<path opacity="0.39" d="M92.907 189.62C92.907 189.62 74.905 129.928 65.053 118.873C55.2 107.817 92.587 146.271 94.364 187.599C92.907 189.62 92.907 189.62 92.907 189.62Z" fill="#FF7F00"/>
<path d="M94.029 257.397C94.029 257.397 74.837 291.083 43.36 267.091C63.497 264.489 67.079 253.799 67.079 253.799C67.079 253.799 41.986 272.982 24.356 249.467C45.211 247.353 50.577 239.448 50.577 239.448C50.577 239.448 30.005 236.506 22.509 239.816C15.014 243.126 16.262 223.503 16.262 223.503C16.262 223.503 48.096 231.169 51.872 227.32C55.649 223.471 15.737 214.224 15.737 214.224L17.022 204.599C17.022 204.599 44.497 217.476 36.619 208.978C28.74 200.481 21.759 199.941 21.759 199.941L29.102 186.03L53.833 181.298C53.833 181.298 59.745 208.93 64.544 211.138C69.343 213.346 61.071 179.913 61.071 179.913L74.751 186.05C74.751 186.05 73.938 211.217 77.416 213.053C80.894 214.889 81.218 190.441 81.218 190.441C81.218 190.441 90.56 196.782 88.709 216.52C92.187 218.356 99.619 208.18 97.285 199.247C111.243 229.718 105.054 249.66 94.029 257.397Z" fill="#CECECE"/>
<path opacity="0.53" d="M39.225 199.726C39.225 199.726 81.277 226.697 91.527 254.124C68.866 227.195 39.225 199.726 39.225 199.726Z" fill="#5A5A66"/>
<path opacity="0.53" d="M67.586 232.569L45.838 234.294C45.838 234.294 65.781 237.989 67.586 232.569Z" fill="#5A5A66"/>
<path opacity="0.53" d="M76.147 242.299L54.58 249.47C54.58 249.47 76.187 247.853 76.147 242.299Z" fill="#5A5A66"/>
<path opacity="0.53" d="M83.449 252.879C83.449 252.879 78.338 262.512 67.326 268.347C75.243 266.223 85.432 258.995 83.449 252.879Z" fill="#5A5A66"/>
<path opacity="0.53" d="M89.468 243.363C89.468 243.363 98.336 230.948 98.079 224.298C98.293 236.032 94.814 244.127 89.468 243.363Z" fill="#5A5A66"/>
<path opacity="0.53" d="M78.955 229.176C78.955 229.176 85.305 218.014 83.815 209.164C86.046 222.947 82.498 228.396 78.955 229.176Z" fill="#5A5A66"/>
<path opacity="0.53" d="M71.689 218.995C71.689 218.995 74.861 209.05 70.592 200.529C70.202 214.407 69.422 218.819 71.689 218.995Z" fill="#5A5A66"/>
<path opacity="0.53" d="M55.112 204.505L51.297 193.055C51.297 193.055 49.058 202.735 55.112 204.505Z" fill="#5A5A66"/>
<path d="M86.141 348.183C86.141 348.183 -4.458 352.413 0.731 325.864C5.921 299.315 49.179 321.142 49.179 321.142C49.179 321.142 14.995 301.935 10.946 275.982C6.897 250.029 74.43 311.674 74.43 311.674C74.43 311.674 53.893 291.189 52.176 263.847C50.458 236.505 95.948 274.178 86.141 348.183Z" fill="#FF7F00"/>
<path opacity="0.39" d="M80.194 334.479C80.194 334.479 7.131 261.083 25.857 284.451C44.584 307.819 80.194 334.479 80.194 334.479Z" fill="#FF7F00"/>
<path opacity="0.39" d="M13.358 326.21L77.025 335.468C77.025 335.468 21.764 335.082 13.358 326.21Z" fill="#FF7F00"/>
<path opacity="0.39" d="M61.906 269.109L83.654 316.954C83.654 316.954 73.225 276.206 61.906 269.109Z" fill="#FF7F00"/>
<path d="M96.319 372.302H222.737C233.263 372.302 241.796 363.769 241.796 353.243V63.378C241.796 52.852 233.263 44.318 222.737 44.318H96.319C85.793 44.318 77.26 52.851 77.26 63.378V353.243C77.26 363.769 85.793 372.302 96.319 372.302Z" fill="#2F2F35"/>
<path d="M104.298 370.861H230.716C241.242 370.861 249.775 362.382 249.775 351.922V63.883C249.775 53.423 241.242 44.944 230.716 44.944H104.298C93.772 44.944 85.238 53.423 85.238 63.883V351.922C85.239 362.382 93.772 370.861 104.298 370.861Z" stroke="#9191A3" stroke-width="0.9332" stroke-miterlimit="10"/>
<path d="M116.001 372.302H242.419C252.945 372.302 261.478 363.769 261.478 353.243V63.378C261.478 52.852 252.945 44.318 242.419 44.318H116.001C105.475 44.318 96.942 52.851 96.942 63.378V353.243C96.941 363.769 105.474 372.302 116.001 372.302Z" fill="#5A5A66"/>
<path d="M110.478 353.456H247.94C252.82 353.456 256.776 349.5 256.776 344.62V61.535C256.776 56.655 252.82 52.699 247.94 52.699H110.478C105.598 52.699 101.642 56.655 101.642 61.535V344.62C101.642 349.5 105.598 353.456 110.478 353.456Z" fill="#FFFFFD"/>
<path d="M172.923 362.616C172.923 366.088 175.738 368.903 179.21 368.903C182.682 368.903 185.497 366.088 185.497 362.616C185.497 359.144 182.682 356.329 179.21 356.329C175.737 356.328 172.923 359.143 172.923 362.616Z" fill="white"/>
<path d="M87.362 91.859C89.707 91.859 91.609 93.76 91.609 96.106V121.056C91.609 123.401 89.708 125.303 87.362 125.303H83.115V121.056V96.106V91.859H87.362Z" fill="#5A5A66"/>
<path d="M78.869 121.055C78.869 123.4 80.77 125.302 83.116 125.302C85.461 125.302 87.363 123.401 87.363 121.055V96.105C87.363 93.76 85.461 91.858 83.116 91.858C80.771 91.858 78.869 93.759 78.869 96.105V121.055Z" fill="#A9A7AA"/>
<path d="M87.362 131.672C89.707 131.672 91.609 133.573 91.609 135.919V160.869C91.609 163.214 89.708 165.116 87.362 165.116H83.115V160.869V135.919V131.672H87.362Z" fill="#5A5A66"/>
<path d="M78.869 160.869C78.869 163.214 80.77 165.116 83.116 165.116C85.461 165.116 87.363 163.215 87.363 160.869V135.919C87.363 133.573 85.461 131.672 83.116 131.672C80.771 131.672 78.869 133.573 78.869 135.919V160.869Z" fill="#A9A7AA"/>
<path d="M118.839 247.39H237.698C242.469 247.39 246.336 243.523 246.336 238.752V81.923C246.336 77.152 242.469 73.285 237.698 73.285H118.839C114.068 73.285 110.201 77.152 110.201 81.923V238.752C110.201 243.523 114.069 247.39 118.839 247.39Z" fill="#ECECEC"/>
<path d="M115.948 344.37H240.589C243.763 344.37 246.336 341.797 246.336 338.623V258.446C246.336 255.272 243.763 252.699 240.589 252.699H115.948C112.774 252.699 110.201 255.272 110.201 258.446V338.623C110.201 341.797 112.774 344.37 115.948 344.37Z" fill="#ECECEC"/>
<path d="M225.342 54.406C225.342 58.727 221.839 62.231 217.517 62.231H141.357C137.036 62.231 133.532 58.728 133.532 54.406C133.532 50.085 137.035 46.581 141.357 46.581H217.517C221.839 46.581 225.342 50.084 225.342 54.406Z" fill="#5A5A66"/>
<path d="M123.267 84.831H138.836" stroke="#5A5A66" stroke-width="1.6105" stroke-miterlimit="10"/>
<path d="M123.267 90.444H138.836" stroke="#5A5A66" stroke-width="1.6105" stroke-miterlimit="10"/>
<path d="M123.267 96.057H138.836" stroke="#5A5A66" stroke-width="1.6105" stroke-miterlimit="10"/>
<path d="M198.727 86.252C198.727 83.03 191.039 81.225 191.039 86.252C191.039 94.243 198.727 97.765 198.727 97.765C198.727 97.765 206.415 94.243 206.415 86.252C206.415 81.226 198.727 83.03 198.727 86.252Z" fill="#5A5A66"/>
<path d="M230.854 94.332H218.49L217.388 84.831H231.956L230.854 94.332Z" fill="#5A5A66"/>
<path d="M221.4 98.132C222.449 98.132 223.3 97.2813 223.3 96.232C223.3 95.1827 222.449 94.332 221.4 94.332C220.351 94.332 219.5 95.1827 219.5 96.232C219.5 97.2813 220.351 98.132 221.4 98.132Z" fill="#5A5A66"/>
<path d="M227.945 98.132C228.994 98.132 229.845 97.2813 229.845 96.232C229.845 95.1827 228.994 94.332 227.945 94.332C226.896 94.332 226.045 95.1827 226.045 96.232C226.045 97.2813 226.896 98.132 227.945 98.132Z" fill="#5A5A66"/>
<path d="M235.968 84.831H229.845V86.9H235.968V84.831Z" fill="#5A5A66"/>
<path d="M238.098 260.354H117.371V280.885H238.098V260.354Z" fill="#FF7F00"/>
<path opacity="0.53" d="M145.759 287.107H117.371V315.495H145.759V287.107Z" fill="#5A5A66"/>
<path opacity="0.28" d="M181.701 287.107H153.313V315.495H181.701V287.107Z" fill="#5A5A66"/>
<path opacity="0.13" d="M217.42 287.107H189.033V315.495H217.42V287.107Z" fill="#5A5A66"/>
<path d="M226.077 293.377V308.435L238.099 300.906L226.077 293.377Z" fill="#5A5A66"/>
<path d="M117.371 325.058H238.099" stroke="#5A5A66" stroke-width="0.9416" stroke-miterlimit="10"/>
<path d="M117.371 333.146H238.099" stroke="#5A5A66" stroke-width="0.9416" stroke-miterlimit="10"/>
<path d="M134.222 270.62H217.708" stroke="#2F2F35" stroke-width="1.8664" stroke-miterlimit="10" stroke-linecap="round"/>
<path d="M145.759 54.061C145.759 55.973 144.209 57.523 142.297 57.523C140.385 57.523 138.835 55.973 138.835 54.061C138.835 52.149 140.385 50.599 142.297 50.599C144.209 50.599 145.759 52.149 145.759 54.061Z" fill="white"/>
<path d="M239.091 112.038H203.709V128.482H239.091V112.038Z" fill="#FF7F00"/>
<path d="M210.48 120.26H231.712" stroke="#5A5A66" stroke-width="0.9416" stroke-miterlimit="10" stroke-linecap="round"/>
<path d="M218.692 120.324C218.692 120.324 221.979 126.336 226.044 126.495C229.109 136.805 234.82 140.722 239.09 142.638C261.478 173.055 261.478 173.055 261.478 173.055V148.016L232.906 120.324H218.692Z" fill="#5A5A66"/>
<path opacity="0.33" d="M178.209 232.109C203.574 232.109 224.137 228.867 224.137 224.869C224.137 220.87 203.574 217.629 178.209 217.629C152.844 217.629 132.281 220.87 132.281 224.869C132.281 228.867 152.844 232.109 178.209 232.109Z" fill="#5A5A66"/>
<path d="M176.373 164.703C164.224 164.703 152.695 166.644 142.332 170.124C140.379 170.78 139.143 172.706 139.318 174.759L143.03 218.281C143.329 221.782 146.257 224.471 149.771 224.471H205.368C208.881 224.471 211.81 221.782 212.109 218.281L215.752 175.578C215.924 173.565 214.739 171.671 212.842 170.978C201.863 166.964 189.479 164.703 176.373 164.703Z" fill="#FF7F00"/>
<path d="M139.439 176.176C139.803 174.735 140.865 173.525 142.332 173.032C152.695 169.552 164.224 167.611 176.373 167.611C189.48 167.611 201.863 169.872 212.841 173.886C214.257 174.404 215.276 175.591 215.63 176.997L215.751 175.577C215.923 173.564 214.738 171.67 212.841 170.977C201.863 166.963 189.48 164.702 176.373 164.702C164.224 164.702 152.695 166.643 142.332 170.123C140.379 170.779 139.143 172.705 139.318 174.758L139.439 176.176Z" fill="#2F2F35"/>
<path d="M143.819 179.618C143.819 182.043 141.853 184.009 139.428 184.009C137.003 184.009 135.036 182.043 135.036 179.618C135.036 177.193 137.002 175.227 139.428 175.227C141.853 175.227 143.819 177.193 143.819 179.618Z" stroke="#2F2F35" stroke-width="1.8664" stroke-miterlimit="10"/>
<path d="M206.672 189.938H149.034V191.585H206.672V189.938Z" fill="#2F2F35"/>
<path d="M151.458 193.771C151.458 194.978 150.479 195.957 149.272 195.957C148.065 195.957 147.086 194.978 147.086 193.771C147.086 192.564 148.065 191.585 149.272 191.585C150.479 191.585 151.458 192.563 151.458 193.771Z" stroke="#2F2F35" stroke-width="1.8664" stroke-miterlimit="10"/>
<path d="M158.791 180.24C158.791 182.265 157.149 183.907 155.124 183.907C153.099 183.907 151.457 182.265 151.457 180.24V175.264C151.457 173.239 153.099 171.597 155.124 171.597C157.149 171.597 158.791 173.239 158.791 175.264V180.24Z" fill="#2F2F35"/>
<path d="M193.954 180.24C193.954 182.265 195.596 183.907 197.62 183.907C199.645 183.907 201.286 182.265 201.286 180.24V175.264C201.286 173.239 199.645 171.597 197.62 171.597C195.595 171.597 193.954 173.239 193.954 175.264V180.24Z" fill="#2F2F35"/>
<path d="M155.125 176.715C155.125 176.715 154.161 110.749 177.535 110.749C200.909 110.749 197.621 176.715 197.621 176.715" stroke="#FF7F00" stroke-width="3.7329" stroke-miterlimit="10" stroke-linecap="round"/>
<path d="M141.13 196L143.03 218.281C143.329 221.782 146.257 224.471 149.771 224.471H190.181C158.289 221.92 141.13 196 141.13 196Z" fill="#FF7F00"/>
<path d="M348.312 289.724L351.046 373.701H319.682C319.682 373.701 319.811 367.503 327.824 363.893C326.252 289.835 326.252 289.835 326.252 289.835L348.312 289.724Z" fill="#FF7E6E"/>
<path d="M319.682 289.724L313.353 373.701H280.681C280.681 373.701 283.494 365.107 292.413 363.893C297.977 281.209 297.977 281.209 297.977 281.209L319.682 289.724Z" fill="#FF7E6E"/>
<path d="M348.312 289.724L326.252 289.834C326.252 289.834 326.252 289.843 326.65 308.583C333.213 310.156 340.642 311.368 349.038 312.035L348.312 289.724Z" fill="#0F1201"/>
<path d="M296.96 296.324C302.381 299.867 309.417 303.418 318.433 306.298L319.682 289.724L297.977 281.208C297.977 281.208 297.976 281.216 296.96 296.324Z" fill="#0F1201"/>
<path d="M311.455 172.973L280.681 280.336C280.681 280.336 316.15 315.109 369.005 288.334C344.046 172.973 344.046 172.973 344.046 172.973L319.682 174.277L311.455 172.973Z" fill="#5A5A66"/>
<path d="M353.429 77.398C353.429 77.398 349.233 68.913 336.169 70.304C323.105 71.695 314.089 88.864 314.759 105.572C315.429 122.28 326.011 136.721 326.011 136.721L358.225 128.481C358.225 128.481 364.932 113.462 358.225 101.268C351.518 89.074 352.212 80.04 352.212 80.04L353.429 77.398Z" fill="#1C2F36"/>
<path d="M322.148 109.598C322.148 109.598 310.835 110.989 302.116 121.073C293.398 131.157 277.621 148.015 277.621 148.015L253 121.959C250.72 119.546 247.247 118.139 243.573 118.139H222.054C220.642 118.139 219.498 119.098 219.498 120.28V120.323C219.498 121.505 220.642 122.464 222.054 122.464H230.292C230.292 122.464 231.122 132.746 234.859 134.484C238.596 136.223 243.993 137.266 243.993 137.266L267.193 162.964C272.007 168.987 282.361 169.485 287.968 163.964L314.571 137.764L322.148 109.598Z" fill="#FF7E6E"/>
<path d="M333.709 91.275L331.429 110.958L340.189 112.038L340.909 99.781L336.829 90.499L333.709 91.275Z" fill="#FF7E6E"/>
<path d="M334.934 90.97L335.081 92.108C335.081 92.108 335.453 102.427 340.414 108.221L340.91 99.782L336.83 90.5L334.934 90.97Z" fill="#0F1201"/>
<path d="M334.709 88.118C334.709 88.118 334.709 102.198 343.829 105.558C345.909 106.038 353.749 94.198 354.709 86.358C355.669 78.518 353.429 77.398 353.429 77.398C353.429 77.398 339.989 73.718 334.709 88.118Z" fill="#FF7E6E"/>
<path d="M336.13 89.53C336.215 91.364 334.797 92.92 332.962 93.005C331.128 93.09 329.572 91.672 329.487 89.837C329.402 88.003 330.82 86.447 332.655 86.362C334.489 86.277 336.045 87.695 336.13 89.53Z" fill="#FF7E6E"/>
<path d="M345.318 92.496C345.318 92.496 344.605 90.714 341.968 90.215" stroke="#700B00" stroke-width="0.9332" stroke-miterlimit="10" stroke-linecap="round"/>
<path d="M349.88 93.707C349.88 93.707 351.053 93.552 352.212 94.307" stroke="#700B00" stroke-width="0.9332" stroke-miterlimit="10" stroke-linecap="round"/>
<path d="M348.312 95.703L347.813 97.698L345.96 96.701" stroke="#700B00" stroke-width="0.384" stroke-miterlimit="10"/>
<path d="M341.684 96.701L347.136 99.409C347.136 99.409 343.679 101.262 341.684 96.701Z" fill="white"/>
<path d="M314.572 137.765L316.375 131.061L317.206 118.816C317.206 118.816 308.823 127.221 308.755 143.494L314.572 137.765Z" fill="#0F1201"/>
<path d="M346.815 88.006C346.815 88.006 345.817 86.082 342.61 86.794" stroke="#700B00" stroke-width="0.384" stroke-miterlimit="10"/>
<path d="M351.519 89.075C351.519 89.075 353.223 89.073 353.725 90.499" stroke="#700B00" stroke-width="0.384" stroke-miterlimit="10"/>
<path d="M354.883 84.47C355.286 78.348 353.429 77.398 353.429 77.398C353.429 77.398 339.989 73.718 334.709 88.118C341.425 80.568 351.46 83.248 354.883 84.47Z" fill="white"/>
<path d="M337.549 107.797L350.544 111.945C350.544 111.945 344.298 150.543 344.047 172.972C327.626 179.492 320.062 178.449 311.456 172.972C314.325 147.414 314.325 147.414 314.325 147.414C314.325 147.414 308.587 135.939 313.803 125.507C319.019 115.075 322.149 109.598 322.149 109.598L337.549 107.797Z" fill="#FF7F00"/>
<path d="M350.544 111.945C350.544 111.945 355.792 112.727 362.572 124.724C367.158 132.838 377.231 152.761 383.272 164.809C385.914 170.078 383.555 176.478 378.129 178.78L340.795 194.619V198.531C340.795 198.531 347.23 198.009 344.599 201.4C342.124 204.59 334.773 207.087 329.373 203.245C328.737 202.793 328.309 202.096 328.161 201.33C326.057 190.455 326.124 186.71 331.992 184.187C338.056 181.579 366.744 167.235 366.744 167.235L347.213 133.853L340.795 135.679L350.544 111.945Z" fill="#FF7E6E"/>
<path opacity="0.5" d="M253.001 121.96C250.721 119.547 247.248 118.14 243.574 118.14H232.026C232.993 120.121 235.501 123.32 241.881 124.615C251.419 126.55 258.976 138.217 265.974 145.82C272.972 153.423 278.85 155.942 283.049 153.143C280.607 150.798 278.871 149.108 277.688 147.947C277.648 147.989 277.622 148.017 277.622 148.017L253.001 121.96Z" fill="white"/>
<path d="M337.549 107.797L326.348 109.107C324.598 113.393 319.629 126.844 325.539 128.376C331.175 129.837 341.073 115.784 344.802 110.113L337.549 107.797Z" fill="#FF7E6E"/>
<path d="M325.017 161.497C320.323 157.324 314.324 147.414 314.324 147.414C314.324 147.414 314.323 147.425 313.353 156.068C318.351 162.514 329.364 165.361 325.017 161.497Z" fill="#D19F00"/>
<path d="M344.046 172.973C344.064 171.36 344.116 169.655 344.192 167.895C339.471 170.388 327.171 175.283 311.89 169.101C311.753 170.326 311.609 171.606 311.455 172.973C320.062 178.449 327.625 179.493 344.046 172.973Z" fill="#FF7E6E"/>
<path opacity="0.49" d="M377.699 173.283C377.699 175.123 378.202 176.841 379.066 178.323C383.818 175.716 385.756 169.764 383.272 164.809C383.205 164.676 383.135 164.537 383.068 164.402C379.877 166.083 377.699 169.426 377.699 173.283Z" fill="#CD2E2B"/>
<path opacity="0.49" d="M286.647 165.079C284.543 162.629 281.118 161.028 277.239 161.028C273.762 161.028 270.651 162.316 268.526 164.347C273.302 168.638 281.38 168.984 286.647 165.079Z" fill="#CD2E2B"/>
<path d="M277.622 148.016L282.658 152.766" stroke="#7B3C38" stroke-width="0.4096" stroke-miterlimit="10" stroke-linecap="round"/>
<path d="M366.745 167.235L374.569 163.249" stroke="#7B3C38" stroke-width="0.4096" stroke-miterlimit="10" stroke-linecap="round"/>
<path d="M350.544 111.945L347.441 110.954C344.014 116.51 332.195 138.035 345.374 151.794C347.277 132.135 350.544 111.945 350.544 111.945Z" fill="#FF7E6E"/>
<path d="M325.539 128.376L326.902 124.614" stroke="#7B3C38" stroke-width="0.4096" stroke-miterlimit="10" stroke-linecap="round"/>
<path d="M331.429 88.118L332.962 93.005" stroke="#7B3C38" stroke-width="0.4096" stroke-miterlimit="10" stroke-linecap="round"/>
<path opacity="0.5" d="M362.572 124.725C358.366 117.285 354.752 114.16 352.612 112.858C351.013 115.12 350.06 119.828 355.629 129.146C364.784 144.464 383.635 170.269 378.129 178.781C383.555 176.479 385.914 170.08 383.272 164.81C377.232 152.762 367.158 132.838 362.572 124.725Z" fill="white"/>
<path d="M347.379 134.135L344.193 129.498C344.193 129.498 344.491 134.828 346.81 138.705L347.379 134.135Z" fill="#0F1201"/>
<path d="M322.992 367.135C319.764 370.346 319.682 373.7 319.682 373.7H351.046L350.768 365.172C335.909 371.349 326.539 368.696 322.992 367.135Z" fill="#FF7F00"/>
<path d="M285.633 366.797C281.989 369.723 280.681 373.701 280.681 373.701H313.353L313.963 365.604C298.003 371.669 289.323 368.915 285.633 366.797Z" fill="#FF7F00"/>
<path d="M304.93 356.883C304.93 356.883 304.93 362.158 311.712 360.902" stroke="#7B3C38" stroke-width="0.4096" stroke-miterlimit="10" stroke-linecap="round"/>
<path d="M341.036 356.883C341.036 356.883 341.036 362.158 347.818 360.902" stroke="#7B3C38" stroke-width="0.4096" stroke-miterlimit="10" stroke-linecap="round"/>
<path d="M368.474 207.902C359.158 208.474 350.409 210.506 342.626 213.663C341.159 214.258 340.302 215.793 340.533 217.359L345.431 250.558C345.825 253.228 348.197 255.153 350.892 254.987L393.525 252.367C396.219 252.202 398.338 250.001 398.402 247.303L399.183 214.386C399.22 212.835 398.222 211.438 396.735 210.996C388.127 208.435 378.524 207.285 368.474 207.902Z" fill="#FF7F00"/>
<path d="M340.693 218.441C340.904 217.319 341.662 216.341 342.763 215.894C350.546 212.737 359.295 210.705 368.611 210.133C378.661 209.515 388.264 210.666 396.871 213.226C397.981 213.556 398.818 214.419 399.156 215.48L399.182 214.385C399.219 212.834 398.221 211.437 396.734 210.995C388.127 208.435 378.524 207.284 368.474 207.902C359.158 208.474 350.409 210.506 342.626 213.663C341.159 214.258 340.302 215.793 340.533 217.359L340.693 218.441Z" fill="#2F2F35"/>
<path d="M344.214 220.874C344.328 222.734 342.913 224.334 341.054 224.448C339.194 224.562 337.594 223.147 337.48 221.288C337.366 219.428 338.781 217.828 340.64 217.714C342.499 217.599 344.1 219.014 344.214 220.874Z" stroke="#2F2F35" stroke-width="1.4339" stroke-miterlimit="10"/>
<path d="M392.878 225.837L348.681 228.552L348.759 229.814L392.956 227.1L392.878 225.837Z" fill="#2F2F35"/>
<path d="M350.739 231.366C350.796 232.292 350.091 233.089 349.166 233.145C348.24 233.202 347.443 232.498 347.387 231.572C347.33 230.646 348.035 229.849 348.96 229.793C349.886 229.736 350.682 230.44 350.739 231.366Z" stroke="#2F2F35" stroke-width="1.4339" stroke-miterlimit="10"/>
<path d="M355.725 220.645C355.82 222.198 354.639 223.534 353.086 223.629C351.533 223.724 350.197 222.543 350.102 220.99L349.868 217.174C349.773 215.621 350.954 214.285 352.507 214.19C354.06 214.095 355.396 215.276 355.491 216.829L355.725 220.645Z" fill="#2F2F35"/>
<path d="M382.688 218.988C382.783 220.541 384.12 221.722 385.672 221.627C387.225 221.532 388.406 220.195 388.311 218.643L388.077 214.827C387.982 213.274 386.646 212.093 385.093 212.188C383.54 212.283 382.359 213.62 382.454 215.172L382.688 218.988Z" fill="#2F2F35"/>
<path d="M368.474 207.902C359.158 208.474 350.409 210.506 342.626 213.663C341.159 214.258 340.302 215.793 340.533 217.359L345.431 250.558C345.825 253.228 348.197 255.153 350.892 254.987L393.525 252.367C396.219 252.202 398.338 250.001 398.402 247.303L399.183 214.386C399.22 212.835 398.222 211.438 396.735 210.996C388.127 208.435 378.524 207.285 368.474 207.902Z" fill="#FF7F00"/>
<path d="M340.693 218.441C340.904 217.319 341.662 216.341 342.763 215.894C350.546 212.737 359.295 210.705 368.611 210.133C378.661 209.515 388.264 210.666 396.871 213.226C397.981 213.556 398.818 214.419 399.156 215.48L399.182 214.385C399.219 212.834 398.221 211.437 396.734 210.995C388.127 208.435 378.524 207.284 368.474 207.902C359.158 208.474 350.409 210.506 342.626 213.663C341.159 214.258 340.302 215.793 340.533 217.359L340.693 218.441Z" fill="#2F2F35"/>
<path d="M344.214 220.874C344.328 222.734 342.913 224.334 341.054 224.448C339.194 224.562 337.594 223.147 337.48 221.288C337.366 219.428 338.781 217.828 340.64 217.714C342.499 217.599 344.1 219.014 344.214 220.874Z" stroke="#2F2F35" stroke-width="1.4339" stroke-miterlimit="10"/>
<path d="M392.878 225.837L348.681 228.552L348.759 229.814L392.956 227.1L392.878 225.837Z" fill="#2F2F35"/>
<path d="M350.739 231.366C350.796 232.292 350.091 233.089 349.166 233.145C348.24 233.202 347.443 232.498 347.387 231.572C347.33 230.646 348.035 229.849 348.96 229.793C349.886 229.736 350.682 230.44 350.739 231.366Z" stroke="#2F2F35" stroke-width="1.4339" stroke-miterlimit="10"/>
<path d="M355.725 220.645C355.82 222.198 354.639 223.534 353.086 223.629C351.533 223.724 350.197 222.543 350.102 220.99L349.868 217.174C349.773 215.621 350.954 214.285 352.507 214.19C354.06 214.095 355.396 215.276 355.491 216.829L355.725 220.645Z" fill="#2F2F35"/>
<path d="M382.688 218.988C382.783 220.541 384.12 221.722 385.672 221.627C387.225 221.532 388.406 220.195 388.311 218.643L388.077 214.827C387.982 213.274 386.646 212.093 385.093 212.188C383.54 212.283 382.359 213.62 382.454 215.172L382.688 218.988Z" fill="#2F2F35"/>
<path d="M352.747 218.115C352.747 218.115 348.899 167.577 366.822 166.475C384.745 165.374 385.333 216.112 385.333 216.112" stroke="#FF7F00" stroke-width="2.8678" stroke-miterlimit="10" stroke-linecap="round"/>
<path d="M347.383 176.829L364.211 168.499L368.866 182.71L349.063 191.112L347.383 176.829Z" fill="#FF7E6E"/>
<path d="M399.985 198.893L405.566 188.21C405.931 187.511 406.868 187.364 407.43 187.918L410.878 191.32C411.392 191.827 411.331 192.674 410.749 193.101L401.312 200.031C400.545 200.593 399.546 199.735 399.985 198.893Z" fill="#A9A7AA"/>
<path d="M409.635 216.762L421.13 210.74C421.715 210.433 422.43 210.78 422.551 211.429L423.533 216.664C423.645 217.258 423.198 217.811 422.594 217.827L410 218.162C409.213 218.183 408.938 217.127 409.635 216.762Z" fill="#A9A7AA"/>
<path d="M409.553 233.57L423.453 235.925C424.028 236.022 424.345 236.648 424.083 237.169L421.564 242.19C421.325 242.667 420.716 242.817 420.282 242.505L409.163 234.503C408.718 234.181 409.011 233.479 409.553 233.57Z" fill="#A9A7AA"/>
<path d="M337.473 181.644C337.473 181.644 346.928 181.288 345.73 192.526C347.499 191.775 348.063 191.536 348.063 191.536C348.063 191.536 348.951 179.955 340.496 179.806C337.473 180.472 337.473 181.644 337.473 181.644Z" fill="#FF7F00"/>
<path opacity="0.49" d="M340.144 202.788C338.463 203.148 336.603 195.045 335.642 191.564C335.017 189.3 330.638 188.28 327.652 187.844C326.379 190.513 326.845 194.526 328.161 201.331C328.309 202.097 328.738 202.793 329.373 203.246C333.52 206.197 338.811 205.403 342.167 203.433C341.59 202.984 340.873 202.632 340.144 202.788Z" fill="#CD2E2B"/>
<path opacity="0.5" d="M398.757 232.323C382.013 234.674 370.32 249.867 367.441 253.97L393.525 252.367C396.219 252.201 398.338 250.001 398.402 247.303L398.757 232.323Z" fill="white"/>
<path opacity="0.5" d="M292.413 363.892C283.494 365.106 280.681 373.7 280.681 373.7H290.865C293.209 370.704 297.08 367.796 303.037 365.172C305.536 348.143 299.533 321.634 296.131 308.63C295.311 320.825 294.126 338.436 292.413 363.892Z" fill="white"/>
<path opacity="0.5" d="M335.364 365.604C338.217 342.316 329.015 318.583 326.747 313.183C326.98 324.14 327.321 340.232 327.823 363.893C319.811 367.503 319.681 373.701 319.681 373.701H328.747C330.246 370.336 332.435 366.834 335.364 365.604Z" fill="white"/>
<path d="M288.532 286.337C292.417 288.857 297.669 291.731 304.114 294.051C306.292 283.13 309.261 267.259 311.712 250.558C316.172 220.168 317.414 193.038 311.455 207.739C306.648 219.598 293.454 268.048 288.532 286.337Z" fill="#2F2F35"/>
<path opacity="0.5" d="M336.169 70.304C327.125 71.267 320.024 79.793 316.731 90.492C325.936 72.256 344.803 77.692 344.803 77.692L348.313 80.257L352.567 79.274L353.43 77.399C353.43 77.399 349.233 68.913 336.169 70.304Z" fill="white"/>
<path d="M354.893 84.404C354.893 84.404 346.019 86.473 336.864 86.112C340.007 83.547 345.273 81.614 354.893 84.404Z" fill="#1C2F36"/>
<path opacity="0.5" d="M354.753 80.257L340.909 82.548C340.909 82.548 337.244 91.659 340.909 103.912C341.761 104.587 342.727 105.152 343.829 105.558C345.909 106.038 353.749 94.198 354.709 86.358C355.054 83.538 354.982 81.598 354.753 80.257Z" fill="white"/>
</svg>
